<?xml version="1.0" encoding="UTF-8"?>
<svg id="Layer_1" xmlns="http://www.w3.org/2000/svg" version="1.1" viewBox="0 0 744.5 325.6">
  <!-- Generator: Adobe Illustrator 29.2.1, SVG Export Plug-In . SVG Version: 2.1.0 Build 116)  -->
  <defs>
    <style>
      .st0, .st1 {
        fill: none;
      }

      .st2, .st3, .st4, .st5, .st6, .st7, .st8, .st9, .st10, .st11, .st12 {
        isolation: isolate;
      }

      .st2, .st3, .st4, .st5, .st7, .st8, .st9, .st10, .st11, .st12 {
        font-family: ArialMT, Arial;
      }

      .st2, .st13 {
        fill: #c62828;
      }

      .st2, .st10 {
        font-size: 12px;
      }

      .st14 {
        fill: #231f20;
      }

      .st3 {
        font-size: 13px;
      }

      .st3, .st5, .st8 {
        fill: #0288d1;
      }

      .st15 {
        fill: #e1f5fe;
        stroke: #0288d1;
      }

      .st15, .st16, .st17, .st18 {
        stroke-width: 2px;
      }

      .st4 {
        font-size: 13.7px;
      }

      .st4, .st7, .st12 {
        fill: #689f38;
      }

      .st16 {
        fill: #f1f8e9;
        stroke: #689f38;
      }

      .st5, .st9 {
        font-size: 14px;
      }

      .st7, .st8, .st11 {
        font-size: 16px;
      }

      .st1 {
        stroke: #6c6c6c;
        stroke-width: 4px;
      }

      .st17 {
        fill: #fff3e0;
        stroke: #f57c00;
      }

      .st19 {
        fill: #fff;
      }

      .st20, .st10 {
        fill: #666;
      }

      .st9, .st11 {
        fill: #f57c00;
      }

      .st18 {
        fill: #ffebee;
        stroke: #c62828;
      }

      .st21 {
        fill: #ffce31;
      }

      .st12 {
        font-size: 12.2px;
      }
    </style>
  </defs>
  <rect class="st19" width="744.5" height="325.6"/>
  <rect class="st15" x="22.5" y="28.6" width="200" height="100" rx="10" ry="10"/>
  <text class="st8" transform="translate(48.7 60.6)"><tspan x="0" y="0">Instructor Repository</tspan></text>
  <text class="st5" transform="translate(72.5 80.6)"><tspan x="0" y="0">On Github.com</tspan></text>
  <rect class="st16" x="272.5" y="28.6" width="200" height="100" rx="10" ry="10"/>
  <text class="st7" transform="translate(311 60.6)"><tspan x="0" y="0">Your GitHub Fork</tspan></text>
  <text class="st12" transform="translate(311.9 104.9)"><tspan x="0" y="0">github.com/username/</tspan><tspan x="-20.4" y="14.7">lastname-sp25-data-materials</tspan></text>
  <rect class="st17" x="522.5" y="28.6" width="200" height="100" rx="10" ry="10"/>
  <text class="st11" transform="translate(564.1 60.6)"><tspan x="0" y="0">Your Local Copy</tspan></text>
  <text class="st9" transform="translate(564.5 80.6)"><tspan x="0" y="0">On Your Computer</tspan></text>
  <path class="st0" d=""/>
  <polygon class="st20" points="244.5 71.6 264.5 78.6 244.5 85.6 244.5 71.6"/>
  <path class="st20" d="M262.5,78.6" marker-end="url(#arrowhead)"/>
  <text class="st10" transform="translate(231.5 60)"><tspan x="0" y="0">Fork</tspan></text>
  <path class="st0" d=""/>
  <polygon class="st20" points="494.5 71.6 514.5 78.6 494.5 85.6 494.5 71.6"/>
  <path class="st20" d="M512.5,78.6" marker-end="url(#arrowhead)"/>
  <text class="st10" transform="translate(477.4 59.9)"><tspan x="0" y="0">Clone</tspan></text>
  <path class="st0" d=""/>
  <path class="st20" d="M372.5,138.6" marker-end="url(#arrowhead)"/>
  <text class="st10" transform="translate(456.1 168.6)"><tspan x="0" y="0">Push your work</tspan></text>
  <path class="st0" d=""/>
  <polygon class="st20" points="365.5 155.5 372.5 135.5 379.5 155.5 365.5 155.5"/>
  <path class="st20" d="M372.5,138.6" marker-end="url(#arrowhead)"/>
  <text class="st10" transform="translate(148.3 193.6)"><tspan x="0" y="0">Pull updates from instructor repository</tspan></text>
  <rect class="st18" x="73.2" y="237.1" width="600" height="60" rx="5" ry="5"/>
  <g class="st6">
    <g>
      <path class="st21" d="M176.5,268.8c-.7,0-1.1-.5-.7-1.2l5.8-11.5c.3-.6.9-.6,1.2,0l5.8,11.5c.3.6,0,1.2-.7,1.2h-11.4Z"/>
      <path class="st14" d="M181.3,260.4l.6,4c0,.4.6.4.6,0l.6-4c.1-1.6-1.9-1.6-1.8,0Z"/>
      <circle class="st14" cx="182.2" cy="266.1" r=".9"/>
    </g>
    <path class="st13" d="M194.1,267.1v-10h2l4.1,6.7v-6.7h1.9v10h-2l-4-6.5v6.5h-1.9Z"/>
    <path class="st13" d="M208.4,264.8l1.9.3c-.2.7-.6,1.2-1.2,1.6-.5.4-1.2.6-2,.6-1.3,0-2.2-.4-2.8-1.2-.5-.7-.7-1.5-.7-2.5s.3-2.1.9-2.8c.6-.7,1.4-1,2.4-1s1.9.4,2.6,1.1c.6.7.9,1.8.9,3.3h-4.8c0,.6.2,1,.5,1.3.3.3.7.5,1.1.5s.6,0,.8-.2.4-.4.5-.8ZM208.5,262.9c0-.6-.2-1-.4-1.3-.3-.3-.6-.4-1-.4s-.8.2-1,.5-.4.7-.4,1.2h2.9Z"/>
    <path class="st13" d="M214,267.1l-2.9-7.3h2l1.4,3.7.4,1.2c.1-.3.2-.5.2-.6,0-.2.1-.4.2-.6l1.4-3.7h2l-2.9,7.3h-1.7Z"/>
    <path class="st13" d="M224,264.8l1.9.3c-.2.7-.6,1.2-1.2,1.6-.5.4-1.2.6-2,.6-1.3,0-2.2-.4-2.8-1.2-.5-.7-.7-1.5-.7-2.5s.3-2.1.9-2.8c.6-.7,1.4-1,2.4-1s1.9.4,2.6,1.1c.6.7.9,1.8.9,3.3h-4.8c0,.6.2,1,.5,1.3.3.3.7.5,1.1.5s.6,0,.8-.2.4-.4.5-.8ZM224.1,262.9c0-.6-.2-1-.4-1.3-.3-.3-.6-.4-1-.4s-.8.2-1,.5-.4.7-.4,1.2h2.9Z"/>
    <path class="st13" d="M229.4,267.1h-1.9v-7.3h1.8v1c.3-.5.6-.8.8-1s.5-.2.8-.2.9.1,1.3.4l-.6,1.7c-.3-.2-.6-.3-.9-.3s-.5,0-.7.2c-.2.1-.3.4-.4.8s-.2,1.2-.2,2.4v2.2Z"/>
    <path class="st13" d="M236.8,259.9h1.8v1.1c.2-.4.5-.7.9-.9s.8-.3,1.3-.3c.8,0,1.6.3,2.1,1s.9,1.6.9,2.8-.3,2.2-.9,2.8c-.6.7-1.3,1-2.2,1s-.8,0-1.1-.2-.7-.4-1-.8v3.7h-1.9v-10ZM238.7,263.4c0,.8.2,1.4.5,1.8.3.4.7.6,1.2.6s.8-.2,1.1-.5c.3-.4.4-.9.4-1.8s-.2-1.3-.5-1.7-.7-.6-1.1-.6-.9.2-1.2.5c-.3.4-.5.9-.5,1.6Z"/>
    <path class="st13" d="M250.2,267.1v-1.1c-.3.4-.6.7-1,.9s-.9.3-1.4.3-.9-.1-1.3-.3-.7-.5-.8-.9-.3-.9-.3-1.6v-4.6h1.9v3.3c0,1,0,1.6.1,1.9,0,.2.2.4.4.5.2.1.4.2.7.2s.6,0,.9-.3c.3-.2.4-.4.5-.7,0-.3.1-.9.1-2v-3.1h1.9v7.3h-1.8Z"/>
    <path class="st13" d="M253.3,265.1l1.9-.3c0,.4.2.7.5.9.3.2.6.3,1.1.3s.9,0,1.1-.3c.2-.1.3-.3.3-.5s0-.3-.1-.4c0,0-.3-.2-.6-.3-1.5-.3-2.5-.7-2.9-.9-.6-.4-.9-.9-.9-1.6s.2-1.2.7-1.6,1.3-.6,2.3-.6,1.7.2,2.2.5.8.8,1,1.4l-1.8.3c0-.3-.2-.5-.4-.6s-.5-.2-.9-.2-.9,0-1.1.2c-.1.1-.2.2-.2.4s0,.3.2.3c.2.1.8.3,1.8.5s1.7.5,2.1.9c.4.3.6.8.6,1.4s-.3,1.2-.8,1.7-1.4.7-2.5.7-1.8-.2-2.3-.6-1-.9-1.1-1.6Z"/>
    <path class="st13" d="M263.7,257.1v3.7c.6-.7,1.4-1.1,2.2-1.1s.8,0,1.2.2.6.4.8.6.3.5.4.8,0,.8,0,1.4v4.3h-1.9v-3.8c0-.8,0-1.2-.1-1.4s-.2-.4-.4-.5c-.2-.1-.4-.2-.7-.2s-.6,0-.9.2-.4.4-.6.7c-.1.3-.2.8-.2,1.4v3.6h-1.9v-10h1.9Z"/>
    <path class="st13" d="M273.3,259.9h2l1.7,5.2,1.7-5.2h2l-2.6,7-.5,1.3c-.2.4-.3.7-.5,1s-.3.4-.5.5c-.2.1-.4.2-.7.3s-.6.1-1,.1-.7,0-1.1-.1l-.2-1.5c.3,0,.6,0,.8,0,.4,0,.8-.1,1-.4.2-.3.4-.6.5-1l-2.8-7.3Z"/>
    <path class="st13" d="M281.6,263.4c0-.6.2-1.3.5-1.9s.8-1.1,1.3-1.4,1.2-.5,1.9-.5c1.1,0,2,.4,2.7,1.1.7.7,1.1,1.6,1.1,2.7s-.4,2-1.1,2.7c-.7.7-1.6,1.1-2.7,1.1s-1.3-.2-1.9-.5-1.1-.7-1.4-1.3c-.3-.6-.5-1.3-.5-2.1ZM283.5,263.5c0,.7.2,1.3.5,1.7s.8.6,1.3.6.9-.2,1.3-.6.5-.9.5-1.7-.2-1.3-.5-1.6-.8-.6-1.3-.6-.9.2-1.3.6-.5.9-.5,1.7Z"/>
    <path class="st13" d="M295.3,267.1v-1.1c-.3.4-.6.7-1,.9s-.9.3-1.4.3-.9-.1-1.3-.3-.7-.5-.8-.9-.3-.9-.3-1.6v-4.6h1.9v3.3c0,1,0,1.6.1,1.9,0,.2.2.4.4.5.2.1.4.2.7.2s.6,0,.9-.3c.3-.2.4-.4.5-.7,0-.3.1-.9.1-2v-3.1h1.9v7.3h-1.8Z"/>
    <path class="st13" d="M300.9,267.1h-1.9v-7.3h1.8v1c.3-.5.6-.8.8-1s.5-.2.8-.2.9.1,1.3.4l-.6,1.7c-.3-.2-.6-.3-.9-.3s-.5,0-.7.2c-.2.1-.3.4-.4.8s-.2,1.2-.2,2.4v2.2Z"/>
    <path class="st13" d="M309.8,267.1l-2.3-7.3h1.9l1.4,4.8,1.3-4.8h1.9l1.2,4.8,1.4-4.8h1.9l-2.3,7.3h-1.8l-1.3-4.7-1.2,4.7h-1.9Z"/>
    <path class="st13" d="M318.9,263.4c0-.6.2-1.3.5-1.9s.8-1.1,1.3-1.4,1.2-.5,1.9-.5c1.1,0,2,.4,2.7,1.1.7.7,1.1,1.6,1.1,2.7s-.4,2-1.1,2.7c-.7.7-1.6,1.1-2.7,1.1s-1.3-.2-1.9-.5-1.1-.7-1.4-1.3c-.3-.6-.5-1.3-.5-2.1ZM320.9,263.5c0,.7.2,1.3.5,1.7s.8.6,1.3.6.9-.2,1.3-.6.5-.9.5-1.7-.2-1.3-.5-1.6-.8-.6-1.3-.6-.9.2-1.3.6-.5.9-.5,1.7Z"/>
    <path class="st13" d="M329.7,267.1h-1.9v-7.3h1.8v1c.3-.5.6-.8.8-1s.5-.2.8-.2.9.1,1.3.4l-.6,1.7c-.3-.2-.6-.3-.9-.3s-.5,0-.7.2c-.2.1-.3.4-.4.8s-.2,1.2-.2,2.4v2.2Z"/>
    <path class="st13" d="M333.3,267.1v-10h1.9v5.3l2.2-2.6h2.4l-2.5,2.7,2.7,4.6h-2.1l-1.8-3.3-.9.9v2.3h-1.9Z"/>
    <path class="st13" d="M344.9,267.1v-10h1.9v3.6c.6-.7,1.3-1,2.1-1s1.6.3,2.2,1c.6.6.9,1.6.9,2.8s-.3,2.2-.9,2.9c-.6.7-1.3,1-2.2,1s-.8-.1-1.2-.3c-.4-.2-.8-.5-1-.9v1.1h-1.8ZM346.8,263.3c0,.8.1,1.3.4,1.7.3.5.8.8,1.3.8s.8-.2,1.1-.5c.3-.4.4-.9.4-1.7s-.2-1.4-.5-1.8c-.3-.4-.7-.5-1.2-.5s-.8.2-1.1.5c-.3.4-.5.9-.5,1.6Z"/>
    <path class="st13" d="M355,262.1l-1.7-.3c.2-.7.5-1.2,1-1.6s1.2-.5,2.1-.5,1.5.1,1.9.3c.4.2.7.5.9.8.2.3.3.9.3,1.7v2.2c0,.6,0,1.1,0,1.4,0,.3.2.6.3,1h-1.9c0-.1-.1-.3-.2-.6,0-.1,0-.2,0-.2-.3.3-.7.6-1.1.7s-.8.2-1.2.2c-.7,0-1.3-.2-1.8-.6-.4-.4-.6-.9-.6-1.5s0-.8.3-1.1c.2-.3.5-.6.8-.7.4-.2.9-.3,1.5-.4.9-.2,1.5-.3,1.9-.5v-.2c0-.4,0-.6-.3-.8-.2-.2-.5-.2-1-.2s-.6,0-.8.2c-.2.1-.3.4-.5.7ZM357.6,263.6c-.2,0-.6.2-1.2.3s-.9.2-1,.3c-.3.2-.4.4-.4.7s.1.5.3.7.5.3.8.3.7-.1,1-.3c.2-.2.4-.4.5-.6,0-.2,0-.5,0-.9v-.4Z"/>
    <path class="st13" d="M367.7,262l-1.9.3c0-.4-.2-.7-.4-.9-.2-.2-.5-.3-.9-.3s-.9.2-1.1.5c-.3.3-.4.9-.4,1.7s.1,1.5.4,1.8c.3.4.7.5,1.2.5s.7-.1.9-.3c.2-.2.4-.6.5-1.1l1.9.3c-.2.9-.6,1.5-1.1,2s-1.3.7-2.2.7-1.9-.3-2.5-1c-.6-.7-.9-1.6-.9-2.8s.3-2.1,1-2.8c.6-.7,1.5-1,2.6-1s1.6.2,2.1.6c.5.4.9,1,1.1,1.7Z"/>
    <path class="st13" d="M369.1,267.1v-10h1.9v5.3l2.2-2.6h2.4l-2.5,2.7,2.7,4.6h-2.1l-1.8-3.3-.9.9v2.3h-1.9Z"/>
    <path class="st13" d="M384.1,259.9v1.5h-1.3v2.9c0,.6,0,.9,0,1,0,0,0,.2.2.2,0,0,.2,0,.3,0s.4,0,.8-.2l.2,1.5c-.4.2-1,.3-1.5.3s-.7,0-.9-.2c-.3-.1-.5-.3-.6-.5-.1-.2-.2-.4-.3-.7,0-.2,0-.7,0-1.4v-3.2h-.9v-1.5h.9v-1.4l1.9-1.1v2.6h1.3Z"/>
    <path class="st13" d="M385,263.4c0-.6.2-1.3.5-1.9s.8-1.1,1.3-1.4c.6-.3,1.2-.5,1.9-.5,1.1,0,2,.4,2.7,1.1.7.7,1.1,1.6,1.1,2.7s-.4,2-1.1,2.7c-.7.7-1.6,1.1-2.7,1.1s-1.3-.2-1.9-.5c-.6-.3-1.1-.7-1.4-1.3-.3-.6-.5-1.3-.5-2.1ZM387,263.5c0,.7.2,1.3.5,1.7s.8.6,1.3.6.9-.2,1.3-.6c.3-.4.5-.9.5-1.7s-.2-1.3-.5-1.6c-.3-.4-.8-.6-1.3-.6s-.9.2-1.3.6-.5.9-.5,1.7Z"/>
    <path class="st13" d="M401.2,259.9v1.5h-1.3v2.9c0,.6,0,.9,0,1,0,0,0,.2.2.2,0,0,.2,0,.3,0s.4,0,.8-.2l.2,1.5c-.4.2-1,.3-1.5.3s-.7,0-.9-.2c-.3-.1-.5-.3-.6-.5-.1-.2-.2-.4-.3-.7,0-.2,0-.7,0-1.4v-3.2h-.9v-1.5h.9v-1.4l1.9-1.1v2.6h1.3Z"/>
    <path class="st13" d="M404.5,257.1v3.7c.6-.7,1.4-1.1,2.2-1.1s.8,0,1.2.2.6.4.8.6c.2.3.3.5.4.8,0,.3,0,.8,0,1.4v4.3h-1.9v-3.8c0-.8,0-1.2-.1-1.4s-.2-.4-.4-.5c-.2-.1-.4-.2-.7-.2s-.6,0-.9.2-.4.4-.5.7c-.1.3-.2.8-.2,1.4v3.6h-1.9v-10h1.9Z"/>
    <path class="st13" d="M415.3,264.8l1.9.3c-.2.7-.6,1.2-1.2,1.6-.5.4-1.2.6-2,.6-1.3,0-2.2-.4-2.8-1.2-.5-.7-.7-1.5-.7-2.5s.3-2.1.9-2.8c.6-.7,1.4-1,2.4-1s1.9.4,2.6,1.1c.6.7.9,1.8.9,3.3h-4.8c0,.6.2,1,.5,1.3.3.3.7.5,1.1.5s.6,0,.8-.2.4-.4.5-.8ZM415.4,262.9c0-.6-.2-1-.4-1.3-.3-.3-.6-.4-1-.4s-.8.2-1,.5-.4.7-.4,1.2h2.9Z"/>
    <path class="st13" d="M422.8,258.9v-1.8h1.9v1.8h-1.9ZM422.8,267.1v-7.3h1.9v7.3h-1.9Z"/>
    <path class="st13" d="M433.3,267.1h-1.9v-3.7c0-.8,0-1.3-.1-1.5,0-.2-.2-.4-.4-.5-.2-.1-.4-.2-.7-.2s-.6,0-.9.3-.4.4-.5.7c0,.3-.1.9-.1,1.7v3.3h-1.9v-7.3h1.8v1.1c.6-.8,1.4-1.2,2.4-1.2s.8,0,1.2.2c.4.2.6.3.8.6.2.2.3.5.4.8,0,.3.1.7.1,1.3v4.5Z"/>
    <path class="st13" d="M434.6,265.1l1.9-.3c0,.4.2.7.5.9.3.2.6.3,1.1.3s.9,0,1.1-.3c.2-.1.3-.3.3-.5s0-.3-.1-.4c0,0-.3-.2-.6-.3-1.5-.3-2.5-.7-2.9-.9-.6-.4-.9-.9-.9-1.6s.2-1.2.7-1.6,1.3-.6,2.3-.6,1.7.2,2.2.5.8.8,1,1.4l-1.8.3c0-.3-.2-.5-.4-.6-.2-.2-.5-.2-.9-.2s-.9,0-1.1.2c-.1.1-.2.2-.2.4s0,.3.2.3c.2.1.8.3,1.8.5,1,.2,1.7.5,2.1.9.4.3.6.8.6,1.4s-.3,1.2-.8,1.7-1.4.7-2.5.7-1.8-.2-2.3-.6c-.6-.4-1-.9-1.1-1.6Z"/>
    <path class="st13" d="M446.4,259.9v1.5h-1.3v2.9c0,.6,0,.9,0,1,0,0,0,.2.2.2,0,0,.2,0,.3,0s.4,0,.8-.2l.2,1.5c-.4.2-1,.3-1.5.3s-.7,0-.9-.2c-.3-.1-.5-.3-.6-.5-.1-.2-.2-.4-.3-.7,0-.2,0-.7,0-1.4v-3.2h-.9v-1.5h.9v-1.4l1.9-1.1v2.6h1.3Z"/>
    <path class="st13" d="M449.5,267.1h-1.9v-7.3h1.8v1c.3-.5.6-.8.8-1,.2-.2.5-.2.8-.2s.9.1,1.3.4l-.6,1.7c-.3-.2-.6-.3-.9-.3s-.5,0-.7.2c-.2.1-.3.4-.4.8-.1.4-.2,1.2-.2,2.4v2.2Z"/>
    <path class="st13" d="M457.9,267.1v-1.1c-.3.4-.6.7-1,.9-.4.2-.9.3-1.4.3s-.9-.1-1.3-.3-.7-.5-.8-.9-.3-.9-.3-1.6v-4.6h1.9v3.3c0,1,0,1.6.1,1.9,0,.2.2.4.4.5.2.1.4.2.7.2s.6,0,.9-.3c.3-.2.4-.4.5-.7,0-.3.1-.9.1-2v-3.1h1.9v7.3h-1.8Z"/>
    <path class="st13" d="M468,262l-1.9.3c0-.4-.2-.7-.4-.9-.2-.2-.5-.3-.9-.3s-.9.2-1.1.5c-.3.3-.4.9-.4,1.7s.1,1.5.4,1.8c.3.4.7.5,1.2.5s.7-.1.9-.3c.2-.2.4-.6.5-1.1l1.9.3c-.2.9-.6,1.5-1.1,2s-1.3.7-2.2.7-1.9-.3-2.5-1c-.6-.7-.9-1.6-.9-2.8s.3-2.1,1-2.8c.6-.7,1.5-1,2.6-1s1.6.2,2.1.6c.5.4.9,1,1.1,1.7Z"/>
    <path class="st13" d="M472.8,259.9v1.5h-1.3v2.9c0,.6,0,.9,0,1,0,0,0,.2.2.2,0,0,.2,0,.3,0s.4,0,.8-.2l.2,1.5c-.4.2-1,.3-1.5.3s-.7,0-.9-.2c-.3-.1-.5-.3-.6-.5-.1-.2-.2-.4-.3-.7,0-.2,0-.7,0-1.4v-3.2h-.9v-1.5h.9v-1.4l1.9-1.1v2.6h1.3Z"/>
    <path class="st13" d="M473.7,263.4c0-.6.2-1.3.5-1.9s.8-1.1,1.3-1.4c.6-.3,1.2-.5,1.9-.5,1.1,0,2,.4,2.7,1.1.7.7,1.1,1.6,1.1,2.7s-.4,2-1.1,2.7c-.7.7-1.6,1.1-2.7,1.1s-1.3-.2-1.9-.5c-.6-.3-1.1-.7-1.4-1.3-.3-.6-.5-1.3-.5-2.1ZM475.7,263.5c0,.7.2,1.3.5,1.7s.8.6,1.3.6.9-.2,1.3-.6c.3-.4.5-.9.5-1.7s-.2-1.3-.5-1.6c-.3-.4-.8-.6-1.3-.6s-.9.2-1.3.6-.5.9-.5,1.7Z"/>
    <path class="st13" d="M484.5,267.1h-1.9v-7.3h1.8v1c.3-.5.6-.8.8-1,.2-.2.5-.2.8-.2s.9.1,1.3.4l-.6,1.7c-.3-.2-.6-.3-.9-.3s-.5,0-.7.2c-.2.1-.3.4-.4.8-.1.4-.2,1.2-.2,2.4v2.2Z"/>
    <path class="st13" d="M493.9,267.1h-1.9v-7.3h1.8v1c.3-.5.6-.8.8-1,.2-.2.5-.2.8-.2s.9.1,1.3.4l-.6,1.7c-.3-.2-.6-.3-.9-.3s-.5,0-.7.2c-.2.1-.3.4-.4.8-.1.4-.2,1.2-.2,2.4v2.2Z"/>
    <path class="st13" d="M501.7,264.8l1.9.3c-.2.7-.6,1.2-1.2,1.6-.5.4-1.2.6-2,.6-1.3,0-2.2-.4-2.8-1.2-.5-.7-.7-1.5-.7-2.5s.3-2.1.9-2.8c.6-.7,1.4-1,2.4-1s1.9.4,2.6,1.1c.6.7.9,1.8.9,3.3h-4.8c0,.6.2,1,.5,1.3.3.3.7.5,1.1.5s.6,0,.8-.2.4-.4.5-.8ZM501.8,262.9c0-.6-.2-1-.4-1.3-.3-.3-.6-.4-1-.4s-.8.2-1,.5-.4.7-.4,1.2h2.9Z"/>
    <path class="st13" d="M505.2,259.9h1.8v1.1c.2-.4.5-.7.9-.9s.8-.3,1.3-.3c.8,0,1.6.3,2.1,1s.9,1.6.9,2.8-.3,2.2-.9,2.8c-.6.7-1.3,1-2.2,1s-.8,0-1.1-.2c-.3-.2-.7-.4-1-.8v3.7h-1.9v-10ZM507.1,263.4c0,.8.2,1.4.5,1.8.3.4.7.6,1.2.6s.8-.2,1.1-.5c.3-.4.4-.9.4-1.8s-.2-1.3-.5-1.7-.7-.6-1.1-.6-.9.2-1.2.5c-.3.4-.5.9-.5,1.6Z"/>
    <path class="st13" d="M513.4,263.4c0-.6.2-1.3.5-1.9s.8-1.1,1.3-1.4c.6-.3,1.2-.5,1.9-.5,1.1,0,2,.4,2.7,1.1.7.7,1.1,1.6,1.1,2.7s-.4,2-1.1,2.7c-.7.7-1.6,1.1-2.7,1.1s-1.3-.2-1.9-.5c-.6-.3-1.1-.7-1.4-1.3-.3-.6-.5-1.3-.5-2.1ZM515.3,263.5c0,.7.2,1.3.5,1.7s.8.6,1.3.6.9-.2,1.3-.6c.3-.4.5-.9.5-1.7s-.2-1.3-.5-1.6c-.3-.4-.8-.6-1.3-.6s-.9.2-1.3.6-.5.9-.5,1.7Z"/>
    <path class="st13" d="M521.7,265.1l1.9-.3c0,.4.2.7.5.9.3.2.6.3,1.1.3s.9,0,1.1-.3c.2-.1.3-.3.3-.5s0-.3-.1-.4c0,0-.3-.2-.6-.3-1.5-.3-2.5-.7-2.9-.9-.6-.4-.9-.9-.9-1.6s.2-1.2.7-1.6,1.3-.6,2.3-.6,1.7.2,2.2.5.8.8,1,1.4l-1.8.3c0-.3-.2-.5-.4-.6-.2-.2-.5-.2-.9-.2s-.9,0-1.1.2c-.1.1-.2.2-.2.4s0,.3.2.3c.2.1.8.3,1.8.5,1,.2,1.7.5,2.1.9.4.3.6.8.6,1.4s-.3,1.2-.8,1.7-1.4.7-2.5.7-1.8-.2-2.3-.6c-.6-.4-1-.9-1.1-1.6Z"/>
    <path class="st13" d="M530.2,258.9v-1.8h1.9v1.8h-1.9ZM530.2,267.1v-7.3h1.9v7.3h-1.9Z"/>
    <path class="st13" d="M537.4,259.9v1.5h-1.3v2.9c0,.6,0,.9,0,1,0,0,0,.2.2.2,0,0,.2,0,.3,0s.4,0,.8-.2l.2,1.5c-.4.2-1,.3-1.5.3s-.7,0-.9-.2c-.3-.1-.5-.3-.6-.5-.1-.2-.2-.4-.3-.7,0-.2,0-.7,0-1.4v-3.2h-.9v-1.5h.9v-1.4l1.9-1.1v2.6h1.3Z"/>
    <path class="st13" d="M538.3,263.4c0-.6.2-1.3.5-1.9s.8-1.1,1.3-1.4c.6-.3,1.2-.5,1.9-.5,1.1,0,2,.4,2.7,1.1.7.7,1.1,1.6,1.1,2.7s-.4,2-1.1,2.7c-.7.7-1.6,1.1-2.7,1.1s-1.3-.2-1.9-.5c-.6-.3-1.1-.7-1.4-1.3-.3-.6-.5-1.3-.5-2.1ZM540.2,263.5c0,.7.2,1.3.5,1.7s.8.6,1.3.6.9-.2,1.3-.6c.3-.4.5-.9.5-1.7s-.2-1.3-.5-1.6c-.3-.4-.8-.6-1.3-.6s-.9.2-1.3.6-.5.9-.5,1.7Z"/>
    <path class="st13" d="M549.1,267.1h-1.9v-7.3h1.8v1c.3-.5.6-.8.8-1,.2-.2.5-.2.8-.2s.9.1,1.3.4l-.6,1.7c-.3-.2-.6-.3-.9-.3s-.5,0-.7.2c-.2.1-.3.4-.4.8-.1.4-.2,1.2-.2,2.4v2.2Z"/>
    <path class="st13" d="M551.8,259.9h2l1.7,5.2,1.7-5.2h2l-2.6,7-.5,1.3c-.2.4-.3.7-.5,1-.2.2-.3.4-.5.5-.2.1-.4.2-.7.3-.3,0-.6.1-1,.1s-.7,0-1.1-.1l-.2-1.5c.3,0,.6,0,.8,0,.4,0,.8-.1,1-.4.2-.3.4-.6.5-1l-2.8-7.3Z"/>
    <path class="st13" d="M561.2,264.5l-.5-5.1v-2.4h2.1v2.4l-.5,5.1h-1.1ZM560.8,267.1v-1.9h1.9v1.9h-1.9Z"/>
  </g>
  <text class="st2" transform="translate(239.3 287.1)"><tspan x="0" y="0">Your homework and modifications stay in your fork</tspan></text>
  <text class="st4" transform="translate(319.5 77.6)"><tspan x="0" y="0">On Github.com</tspan></text>
  <text class="st3" transform="translate(66.6 104.9)"><tspan x="0" y="0">github.com/cblevins/</tspan><tspan x="0" y="15.6">sp25-data-materials</tspan></text>
  <line class="st1" x1="122.5" y1="136.6" x2="122.5" y2="208.6"/>
  <line class="st1" x1="255.2" y1="78.6" x2="227.8" y2="78.6"/>
  <line class="st1" x1="372.5" y1="204.5" x2="372.5" y2="155.5"/>
  <line class="st1" x1="414.1" y1="178.6" x2="601.2" y2="178.6"/>
  <line class="st1" x1="122.5" y1="205.6" x2="682.3" y2="205.6"/>
  <polygon class="st20" points="673.7 158.6 680.7 138.6 687.7 158.6 673.7 158.6"/>
  <line class="st1" x1="680.7" y1="207.6" x2="680.7" y2="158.6"/>
  <polygon class="st20" points="409.1 147 416.1 134.1 423.1 147 409.1 147"/>
  <line class="st1" x1="416.1" y1="178.6" x2="416.1" y2="147"/>
  <line class="st1" x1="599.5" y1="180.2" x2="599.5" y2="138.6"/>
  <line class="st1" x1="502.5" y1="78.6" x2="475.1" y2="78.6"/>
</svg>